French filmmaker Mathieu Weschler has invested two years creating what we believe to be the first feature-length (88 minutes) machinima movie made in the world of Grand Theft Auto IV.

The "trashmaster" divides his time between collecting garbage and cleaning up other forms of trash fouling up New York City's streets: dealers, small-time criminals... When the dancers in his favourite strip club are mysteriously killed, the trashmaster finds himself hot on the trail of a particularly twisted serial killer.

Kudos to M. Weschler – and enjoy, all.

Hard coded french subs :/

General
Complete name                    : The_trashmaster__nouvelle_version_nouvelle_voix_off_____une_vidéo_Gaming_26007404_mp4_h264_aac_hd.mp4
Format                           : MPEG-4
Format profile                   : Base Media / Version 2
Codec ID                         : mp42
File size                        : 915 MiB
Duration                         : 1h 28mn
Overall bit rate                 : 1 440 Kbps
Encoded date                     : UTC 2010-11-02 06:06:46
Tagged date                      : UTC 2010-11-02 06:11:52
Writing application              : edge 1.7.3
orig                             :
cstt                             : 1
pdur                             : 5328.695
coff                             : 0.000
abit                             : 125
vbit                             : 1311
pbyt                             : 959766274
cbyt                             : 959259732 

Video
ID                               : 1
Format                           : AVC
Format/Info                      : Advanced Video Codec
Format profile                   : High@L3.1
Format settings, CABAC           : Yes
Format settings, ReFrames        : 3 frames
Codec ID                         : avc1
Codec ID/Info                    : Advanced Video Coding
Duration                         : 1h 28mn
Bit rate mode                    : Variable
Bit rate                         : 1 312 Kbps
Width                            : 1 280 pixels
Height                           : 720 pixels
Display aspect ratio             : 16:9
Frame rate mode                  : Variable
Frame rate                       : 29.970 fps
Minimum frame rate               : 29.960 fps
Maximum frame rate               : 29.970 fps
Color space                      : YUV
Chroma subsampling               : 4:2:0
Bit depth                        : 8 bits
Scan type                        : Progressive
Bits/(Pixel*Frame)               : 0.047
Stream size                      : 833 MiB (91%)
Language                         : English

Audio
ID                               : 2
Format                           : AAC
Format/Info                      : Advanced Audio Codec
Format profile                   : LC
Codec ID                         : 40
Duration                         : 1h 28mn
Bit rate mode                    : Variable
Bit rate                         : 126 Kbps
Maximum bit rate                 : 185 Kbps
Channel(s)                       : 2 channels
Channel positions                : Front: L R
Sampling rate                    : 44.1 KHz
Compression mode                 : Lossy
Stream size                      : 79.8 MiB (9%)
Language                         : English

Ripped from: